<svg xmlns="http://www.w3.org/2000/svg" viewBox="0 0 100 100" width="100%" height="100%">
  <rect width="100" height="100" rx="20" fill="#171717" />
  
  <g transform="translate(-10, -5) scale(0.6)">
    <!-- Shield/Brain Outline -->
    <path d="M 60 40 C 30 40 10 60 10 90 C 10 120 30 140 60 140 L 140 140 C 170 140 190 120 190 90 C 190 60 170 40 140 40 C 130 0 90 -20 50 0 C 20 0 10 20 0 40 Z" 
          fill="none" stroke="#ffffff" stroke-width="15" stroke-linejoin="round"/>
    <!-- Lightning Bolt -->
    <path d="M 120 -10 L 50 100 L 100 100 L 60 210 L 140 80 L 90 80 Z" 
          fill="#a3e635" stroke="#171717" stroke-width="8" stroke-linejoin="miter" />
  </g>
</svg>
